<svg height="606" width="720" xmlns="http://www.w3.org/2000/svg">
<rect height="606" fill="#555" width="720"></rect>
<text fill="#7f7" font-family="Courier New" font-size="12" xml:space="preserve">
<tspan x="10" y="26">└─┬ archiver@1.3.0 </tspan>
<tspan x="10" y="42">  ├─┬ archiver-utils@1.3.0 </tspan>
<tspan x="10" y="58">  │ ├── graceful-fs@4.1.11 </tspan>
<tspan x="10" y="74">  │ ├── lazystream@1.0.0 </tspan>
<tspan x="10" y="90">  │ └─┬ normalize-path@2.1.1 </tspan>
<tspan x="10" y="106">  │   └── remove-trailing-separator@1.0.1 </tspan>
<tspan x="10" y="122">  ├── async@2.3.0 </tspan>
<tspan x="10" y="138">  ├── buffer-crc32@0.2.13 </tspan>
<tspan x="10" y="154">  ├─┬ glob@7.1.1 </tspan>
<tspan x="10" y="170">  │ ├── fs.realpath@1.0.0 </tspan>
<tspan x="10" y="186">  │ ├─┬ inflight@1.0.6 </tspan>
<tspan x="10" y="202">  │ │ └── wrappy@1.0.2 </tspan>
<tspan x="10" y="218">  │ ├── inherits@2.0.3 </tspan>
<tspan x="10" y="234">  │ ├─┬ minimatch@3.0.3 </tspan>
<tspan x="10" y="250">  │ │ └─┬ brace-expansion@1.1.6 </tspan>
<tspan x="10" y="266">  │ │   ├── balanced-match@0.4.2 </tspan>
<tspan x="10" y="282">  │ │   └── concat-map@0.0.1 </tspan>
<tspan x="10" y="298">  │ ├── once@1.4.0 </tspan>
<tspan x="10" y="314">  │ └── path-is-absolute@1.0.1 </tspan>
<tspan x="10" y="330">  ├── lodash@4.17.4 </tspan>
<tspan x="10" y="346">  ├─┬ readable-stream@2.2.6 </tspan>
<tspan x="10" y="362">  │ ├── buffer-shims@1.0.0 </tspan>
<tspan x="10" y="378">  │ ├── core-util-is@1.0.2 </tspan>
<tspan x="10" y="394">  │ ├── isarray@1.0.0 </tspan>
<tspan x="10" y="410">  │ ├── process-nextick-args@1.0.7 </tspan>
<tspan x="10" y="426">  │ ├── string_decoder@0.10.31 </tspan>
<tspan x="10" y="442">  │ └── util-deprecate@1.0.2 </tspan>
<tspan x="10" y="458">  ├─┬ tar-stream@1.5.2 </tspan>
<tspan x="10" y="474">  │ ├── bl@1.2.0 </tspan>
<tspan x="10" y="490">  │ ├── end-of-stream@1.4.0 </tspan>
<tspan x="10" y="506">  │ └── xtend@4.0.1 </tspan>
<tspan x="10" y="522">  ├── walkdir@0.0.11 </tspan>
<tspan x="10" y="538">  └─┬ zip-stream@1.1.1 </tspan>
<tspan x="10" y="554">    └─┬ compress-commons@1.2.0 </tspan>
<tspan x="10" y="570">      └─┬ crc32-stream@2.0.0 </tspan>
<tspan x="10" y="586">        └── crc@3.4.4</tspan>
</text>
</svg>
